<?xml version="1.0"?>

<!-- Created with Inkscape (http://www.inkscape.org/) -->
<svg xmlns:svg="http://www.w3.org/2000/svg" xmlns="http://www.w3.org/2000/svg" xmlns:xlink="http://www.w3.org/1999/xlink" version="1.0" width="800" height="148.651" viewBox="0 0 800 148.651" id="Layer_1" xml:space="preserve"><defs id="defs42"></defs>
<g id="g3"> <defs id="defs5"> <path d="M 800,148.649 L 0,148.649 L 0,0 L 800,0 L 800,148.649 z " id="XMLID_1_"></path> </defs> <clipPath id="XMLID_5_"> <use id="use9" x="0" y="0" width="800" height="148.651" xlink:href="#XMLID_1_"></use> </clipPath> <g clip-path="url(#XMLID_5_)" id="g11"> <path d="M 479.143,148.612 C 459.319,147.878 446.54,138.406 434.351,124.938 L 452.035,100.935 L 452.363,101.256 C 462.771,111.738 475.102,120.457 490.453,117.822 C 495.284,116.335 500.249,111.403 500.592,106.117 C 501.248,100.723 497.193,96.164 492.936,93.439 L 487.501,90.513 L 466.357,82.047 C 453.541,76.351 442.223,63.297 440.68,48.997 C 438.667,32.342 445.929,16.805 460.862,8.466 C 479.963,-1.662 507.712,1.622 523.793,15.881 L 527.522,19.691 L 510.583,42.821 C 510.583,42.821 510.256,42.404 510.039,42.296 C 501.95,35.542 491.617,29.801 480.568,32.794 C 477.034,34.035 474.499,36.775 473.172,40.678 C 471.764,46.199 473.985,50.359 479.309,53.281 L 491.58,58.772 L 505.797,64.77 C 520.462,71.842 531.608,87.051 531.683,103.851 C 531.653,120.656 521.796,135.801 507.184,144.14 C 499.056,148.045 489.707,148.854 479.143,148.612" style="fill:#00a650" id="path13"></path> </g>
</g>
<path d="M 428.595,145.895 L 399.332,145.895 L 399.332,5.878 L 428.595,5.878 L 428.595,145.895 z " style="fill:#00a650" id="path15"></path>
<g id="g17"> <defs id="defs19"> <path d="M 800,148.649 L 0,148.649 L 0,0 L 800,0 L 800,148.649 z " id="XMLID_3_"></path> </defs> <clipPath id="XMLID_6_"> <use id="use23" x="0" y="0" width="800" height="148.651" xlink:href="#XMLID_3_"></use> </clipPath> <g clip-path="url(#XMLID_6_)" id="g25"> <path d="M 51.099,72.567 L 116.692,72.567 C 116.692,72.567 124.632,71.367 124.856,67.46 C 125.072,64.083 122.351,59.296 122.351,59.296 L 90.15,3.706 C 90.15,3.706 88.525,0.008 83.738,0.008 C 79.16,0.008 77.856,3.374 77.856,3.374 L 45.224,59.077 C 45.224,59.077 41.966,64.404 42.943,67.565 C 44.352,72.239 51.099,72.567 51.099,72.567" style="fill:#ec008c" id="path27"></path> <path d="M 8.343,145.022 L 73.943,145.022 C 73.943,145.022 81.883,143.93 82.107,139.908 C 82.316,136.534 79.602,131.748 79.602,131.748 L 47.402,76.153 C 47.402,76.153 45.762,72.459 40.975,72.459 C 36.412,72.459 35.108,75.94 35.108,75.94 L 2.468,131.531 C 2.468,131.531 -0.798,136.862 0.187,140.015 C 1.603,144.694 8.343,145.022 8.343,145.022" style="fill:#f68b1e" id="path29"></path> </g>
</g>
<path d="M 93.744,145.022 L 159.344,145.022 C 159.344,145.022 167.277,143.93 167.5,139.908 C 167.716,136.534 164.995,131.748 164.995,131.748 L 132.795,76.153 C 132.795,76.153 131.162,72.459 126.383,72.459 C 121.813,72.459 120.396,75.94 120.396,75.94 L 87.868,131.531 C 87.868,131.531 84.61,136.862 85.587,140.015 C 86.997,144.694 93.744,145.022 93.744,145.022" style="fill:#fdb813" id="path31"></path>
<polyline fill="#00A650" points="539.337,3.374 539.337,145.895 568.6,145.895 568.6,78.762 604.833,117.493 640.955,78.762 640.955,145.895 670.425,145.895 670.425,3.269 604.833,74.304 539.337,3.374 " id="polyline33" style="fill:#00a650"></polyline>
<path d="M 743.861,90.408 L 733.744,67.565 L 723.739,90.408 L 743.861,90.408 M 711.221,118.149 L 698.279,145.894 L 667.496,145.894 L 733.639,4.033 L 800,145.895 L 769.209,145.895 L 756.267,118.15 L 711.221,118.15 L 711.221,118.149 z " style="fill:#00a650;fill-rule:evenodd" id="path35"></path>
<path d="M 214.603,75.068 L 214.603,32.095 L 234.188,32.095 C 234.292,32.211 253.878,33.508 253.878,53.526 C 253.99,74.528 234.188,75.068 234.188,75.068 L 214.603,75.068 M 241.256,101.83 C 257.143,101.83 285.205,89.76 285.205,57.556 C 285.205,21.438 257.143,5.551 241.256,5.551 C 241.256,5.551 197.09,5.551 185.012,5.551 L 185.012,145.78 L 214.602,145.78 L 214.602,101.83 C 230.811,101.83 233.212,101.83 241.256,101.83 z " style="fill:#00a650;fill-rule:evenodd" id="path37"></path>
<path d="M 319.806,75.068 L 319.806,32.095 L 339.391,32.095 C 339.495,32.211 359.074,33.508 359.074,53.526 C 359.185,74.528 339.391,75.068 339.391,75.068 L 319.806,75.068 M 356.688,145.779 C 355.383,145.895 391.385,145.779 391.385,145.779 C 391.385,145.895 361.691,98.027 361.691,97.803 C 361.691,97.803 389.76,89.863 389.76,57.876 C 389.76,21.874 361.578,5.987 345.586,5.987 C 345.586,5.987 301.637,5.987 289.671,5.987 L 289.671,145.895 L 319.806,145.895 L 319.806,76.481 C 319.806,76.705 355.383,145.895 356.688,145.779 z " style="fill:#00a650;fill-rule:evenodd" id="path39"></path>
</svg>